<svg xmlns="http://www.w3.org/2000/svg" version="1.1" xmlns:xlink="http://www.w3.org/1999/xlink" xmlns:svgjs="http://svgjs.dev/svgjs" width="1000" height="1000" viewBox="0 0 1000 1000"><g transform="matrix(1,0,0,1,-0.49999999999994316,-0.49999999999994316)"><svg viewBox="0 0 280 280" data-background-color="#e8772e" preserveAspectRatio="xMidYMid meet" height="1000" width="1000" xmlns="http://www.w3.org/2000/svg" xmlns:xlink="http://www.w3.org/1999/xlink"><g id="tight-bounds" transform="matrix(1,0,0,1,0.13999999999998636,0.13999999999998636)"><svg viewBox="0 0 279.72 279.72" height="279.72" width="279.72"><g><svg viewBox="0 0 279.72 279.72" height="279.72" width="279.72"><g><svg viewBox="0 0 279.72 279.72" height="279.72" width="279.72"><g id="textblocktransform"><svg viewBox="0 0 279.72 279.72" height="279.72" width="279.72" id="textblock"><g><svg viewBox="0 0 279.72 279.72" height="279.72" width="279.72"><g transform="matrix(1,0,0,1,57.446704652707865,57.446704652707865)"><svg viewBox="0 0 164.8265906945843 164.8265906945843" height="164.8265906945843" width="164.8265906945843"><g><circle r="82" cx="82.41329534729215" cy="82.41329534729215" fill="#ffffff" data-fill-palette-color="accent"></circle><svg xmlns="http://www.w3.org/2000/svg" xmlns:xlink="http://www.w3.org/1999/xlink" version="1.1" x="24.72398860418764" y="24.723988604187646" viewBox="0 0 32.000404357910156 32" enable-background="new 0 0 32 32" xml:space="preserve" width="115.378613486209" height="115.378613486209" class="icon-o-0" data-fill-palette-color="quaternary" id="o-0"><g fill="#e8772e" data-fill-palette-color="quaternary"><path fill="#e8772e" d="M29.5 21h-2.691c-0.045-0.239-0.1-0.473-0.16-0.706l4.799-2.399c0.494-0.247 0.693-0.848 0.447-1.342-0.248-0.494-0.846-0.692-1.342-0.447l-4.578 2.288C24.229 14.626 20.42 12 16 12c-5.382 0-9.865 3.888-10.809 9H2.5C1.122 21 0 22.121 0 23.5c0 0.49 0.18 0.963 0.505 1.329L4 28.761V29.5C4 30.879 5.122 32 6.5 32h19c1.379 0 2.5-1.121 2.5-2.5v-0.739l3.494-3.932C31.82 24.463 32 23.99 32 23.5 32 22.121 30.879 21 29.5 21zM25.799 21h-0.562l0.498-0.25C25.754 20.834 25.781 20.915 25.799 21zM16 13c4.029 0 7.5 2.4 9.082 5.841l-0.891 0.445C22.775 16.171 19.645 14 16 14c-4.282 0-7.859 2.993-8.77 7H6.202C7.131 16.441 11.171 13 16 13zM20.576 21c-0.773-1.763-2.531-3-4.576-3s-3.802 1.237-4.576 3H10.35c0.826-2.326 3.043-4 5.65-4 2.465 0 4.588 1.496 5.508 3.627L20.764 21H20.576zM16 20c-0.883 0-1.67 0.391-2.22 1h-1.224c0.694-1.189 1.97-2 3.444-2 1.473 0 2.75 0.811 3.443 2h-1.225C17.67 20.391 16.883 20 16 20zM16 16c-3.165 0-5.842 2.112-6.705 5H8.263c0.892-3.444 4.017-6 7.737-6 3.246 0 6.043 1.948 7.295 4.734l-0.893 0.446C21.314 17.723 18.855 16 16 16zM26 28v1.5c0 0.276-0.225 0.5-0.5 0.5h-19C6.224 30 6 29.776 6 29.5V28l-4-4.5C2 23.224 2.224 23 2.5 23H5h1 1 1 1 1 1 1 1 6 1 1 1 1 1 1 1 1 2.5c0.275 0 0.5 0.224 0.5 0.5L26 28z" data-fill-palette-color="quaternary"></path><path fill="#e8772e" d="M7.977 11.712c0.003 0.006 0.005 0.012 0.008 0.018 0 0 0.001 0 0.002 0C8.07 11.89 8.236 12 8.43 12c0.277 0 0.502-0.226 0.502-0.503 0-0.043-0.007-0.085-0.018-0.125 0.002-0.007 0.002-0.013 0-0.02-0.375-0.882-0.019-1.85 0.419-2.892 0.473-1.126 0.98-2.376 0.422-3.647C9.684 4.63 9.507 4.5 9.299 4.5c-0.271 0-0.49 0.22-0.49 0.49 0 0.06 0.012 0.116 0.032 0.169 0 0.002 0 0.004 0.001 0.006 0.001 0.003 0.002 0.006 0.003 0.009C8.847 5.178 8.848 5.182 8.85 5.186c0.404 0.909 0.013 1.841-0.428 2.893C7.956 9.188 7.44 10.417 7.959 11.67 7.965 11.685 7.97 11.698 7.977 11.712z" data-fill-palette-color="quaternary"></path><path fill="#e8772e" d="M20.154 11.566c0.004 0.006 0.006 0.012 0.008 0.018h0.002c0.084 0.16 0.25 0.271 0.443 0.271 0.277 0 0.504-0.226 0.504-0.503 0-0.043-0.008-0.085-0.018-0.125 0.002-0.007 0.002-0.013-0.002-0.02-0.373-0.882-0.018-1.85 0.42-2.892 0.473-1.126 0.98-2.376 0.422-3.647-0.072-0.184-0.248-0.313-0.457-0.313-0.27 0-0.49 0.22-0.49 0.49 0 0.06 0.014 0.116 0.033 0.169 0 0.002 0 0.004 0 0.006 0.002 0.003 0.002 0.006 0.004 0.009 0.002 0.004 0.004 0.008 0.004 0.012 0.404 0.909 0.014 1.841-0.428 2.893-0.465 1.109-0.98 2.339-0.461 3.592C20.143 11.539 20.148 11.553 20.154 11.566z" data-fill-palette-color="quaternary"></path><path fill="#e8772e" d="M15.019 7.212c0.003 0.006 0.005 0.012 0.008 0.018 0 0 0.001 0 0.002 0 0.084 0.16 0.25 0.271 0.443 0.271 0.277 0 0.502-0.226 0.502-0.503 0-0.043-0.007-0.085-0.018-0.125 0.002-0.007 0.002-0.013 0-0.02-0.375-0.882-0.019-1.85 0.419-2.892 0.473-1.126 0.98-2.376 0.422-3.647C16.725 0.13 16.549 0 16.34 0c-0.27 0-0.49 0.22-0.49 0.49 0 0.06 0.012 0.116 0.032 0.169 0 0.002 0 0.004 0.001 0.006 0.001 0.003 0.002 0.006 0.003 0.009 0.001 0.004 0.003 0.008 0.004 0.012 0.404 0.909 0.013 1.841-0.428 2.893-0.466 1.109-0.982 2.339-0.462 3.592C15.007 7.185 15.012 7.198 15.019 7.212z" data-fill-palette-color="quaternary"></path></g></svg></g></svg></g><g><path d="M19.166 187.859L13.869 189.627 11.915 183.769 17.212 182.002 27.213 173.307 29.285 179.517 24.845 182.773 30.364 182.75 32.426 188.93ZM26.82 197.63C25.462 198.292 24.55 198.899 24.084 199.454 23.612 200.01 23.579 200.707 23.986 201.542 24.396 202.383 24.96 202.785 25.677 202.747 26.392 202.719 27.437 202.37 28.813 201.699 30.195 201.026 31.117 200.425 31.58 199.895 32.04 199.358 32.065 198.67 31.655 197.829 31.243 196.981 30.671 196.572 29.942 196.6 29.218 196.626 28.178 196.969 26.82 197.63ZM31.53 207.3C28.61 208.723 26.197 209.147 24.29 208.575 22.383 208.002 20.783 206.388 19.489 203.732 18.199 201.082 17.919 198.822 18.65 196.949 19.377 195.086 21.195 193.446 24.103 192.029 27.017 190.61 29.427 190.187 31.334 190.76 33.241 191.332 34.843 192.95 36.139 195.611 37.435 198.273 37.721 200.531 36.997 202.385 36.272 204.24 34.45 205.878 31.53 207.3ZM40.221 204.383L43.723 209.469 34.105 216.092C33.681 216.384 33.453 216.695 33.421 217.025 33.393 217.361 33.549 217.777 33.89 218.272 34.232 218.768 34.56 219.057 34.877 219.139 35.193 219.221 35.563 219.117 35.987 218.825V218.825L45.605 212.201 49.107 217.287 39.778 223.712C37.703 225.14 35.888 225.627 34.334 225.173 32.775 224.712 31.23 223.37 29.699 221.147 28.164 218.917 27.448 217 27.552 215.395 27.66 213.796 28.743 212.287 30.801 210.87V210.87ZM43.089 236.978L45.771 233.108 44.733 231.994 41.367 235.13 37.164 230.62 50.202 218.469 55.314 223.954C57.187 225.964 58.194 227.716 58.335 229.21 58.481 230.7 57.65 232.288 55.841 233.974 54.027 235.664 52.285 236.392 50.615 236.158V236.158L47.374 241.576ZM48.283 228.657L49.315 229.765C49.907 230.4 50.629 230.322 51.479 229.529 52.325 228.741 52.415 227.99 51.75 227.276V227.276L50.828 226.286ZM62.906 253.879V253.879L56.536 249.396 66.793 234.821 72.95 239.153C75.458 240.919 76.867 242.755 77.174 244.664 77.477 246.568 76.753 248.763 75.003 251.25 73.253 253.737 71.411 255.227 69.478 255.722 67.55 256.22 65.36 255.606 62.906 253.879ZM69.733 247.922C70.653 246.615 71.132 245.65 71.172 245.024 71.212 244.398 70.767 243.758 69.838 243.105V243.105L68.945 242.476 64.474 248.829 65.367 249.458C66.121 249.989 66.812 250.192 67.438 250.069V250.069C68.053 249.938 68.818 249.222 69.733 247.922ZM78.405 263.508L72.998 260.545 81.564 244.915 86.97 247.878ZM101.469 254.337L99.49 258.703C97.282 257.501 95.654 256.683 94.604 256.248 93.554 255.814 92.93 255.592 92.731 255.583 92.535 255.567 92.401 255.648 92.326 255.827 92.252 256.006 92.294 256.186 92.45 256.367 92.607 256.547 93.16 256.968 94.109 257.628 95.052 258.285 95.811 258.863 96.386 259.361 96.955 259.857 97.422 260.415 97.787 261.036 98.158 261.66 98.311 262.298 98.243 262.95 98.167 263.605 97.926 264.424 97.52 265.406V265.406C96.68 267.438 95.541 268.662 94.103 269.08 92.662 269.504 90.851 269.265 88.671 268.363V268.363C87.621 267.929 86.55 267.399 85.456 266.773 84.363 266.148 83.535 265.632 82.972 265.225V265.225L82.106 264.618 84.148 260.364C86.507 261.759 88.489 262.788 90.095 263.452V263.452C90.947 263.805 91.451 263.793 91.607 263.416V263.416C91.673 263.255 91.626 263.098 91.465 262.945 91.298 262.789 90.806 262.467 89.989 261.977V261.977C87.849 260.665 86.519 259.457 85.999 258.352 85.488 257.244 85.592 255.823 86.31 254.087V254.087C87.224 251.876 88.385 250.581 89.793 250.202 91.195 249.82 93.005 250.087 95.222 251.004V251.004C96.778 251.648 98.541 252.561 100.51 253.744V253.744ZM114.248 275.768L108.268 274.231 109.818 268.202 106.439 267.333 104.889 273.362 98.919 271.827 103.356 254.565 109.327 256.1 107.692 262.459 111.071 263.328 112.706 256.969 118.686 258.506ZM122.382 279.72L117.514 279.061 119.146 271.341 125.523 272.204ZM146.203 271.986L146.409 277.565 140.238 277.793 140.033 272.213 134.503 260.169 141.044 259.928 142.92 265.105 144.45 259.802 150.962 259.562ZM157.733 267.39C157.986 268.879 158.312 269.925 158.713 270.528 159.115 271.137 159.773 271.365 160.689 271.209 161.612 271.053 162.156 270.625 162.322 269.926 162.496 269.232 162.455 268.131 162.199 266.622 161.942 265.106 161.624 264.052 161.245 263.459 160.86 262.867 160.206 262.649 159.284 262.805 158.355 262.963 157.801 263.396 157.623 264.104 157.444 264.805 157.481 265.901 157.733 267.39ZM168.338 265.591C168.881 268.793 168.609 271.228 167.523 272.897 166.437 274.566 164.438 275.647 161.526 276.141 158.62 276.634 156.372 276.266 154.781 275.038 153.197 273.815 152.135 271.61 151.594 268.421 151.052 265.225 151.324 262.793 152.41 261.124 153.496 259.456 155.499 258.374 158.418 257.879 161.336 257.384 163.584 257.745 165.159 258.962 166.735 260.179 167.795 262.389 168.338 265.591ZM167.98 256.43L173.845 254.498 177.498 265.59C177.659 266.079 177.894 266.385 178.202 266.509 178.516 266.631 178.959 266.597 179.53 266.409 180.102 266.221 180.471 265.987 180.639 265.706 180.807 265.426 180.811 265.041 180.65 264.552V264.552L176.997 253.46 182.862 251.529 186.405 262.288C187.193 264.681 187.15 266.559 186.277 267.923 185.397 269.29 183.675 270.395 181.111 271.24 178.54 272.086 176.499 272.234 174.988 271.683 173.483 271.131 172.34 269.667 171.558 267.293V267.293ZM200.068 262.837L197.107 259.175 195.745 259.859 197.81 263.971 192.301 266.738 184.302 250.81 191.003 247.445C193.457 246.213 195.421 245.738 196.895 246.023 198.366 246.301 199.656 247.545 200.766 249.755 201.879 251.97 202.088 253.847 201.395 255.384V255.384L205.684 260.016ZM193.541 255.515L194.894 254.835C195.67 254.445 195.797 253.731 195.275 252.692 194.756 251.659 194.061 251.361 193.189 251.799V251.799L191.98 252.406ZM211.446 234.082L216.567 230.005 224.939 246.121 217.819 251.79 203.886 240.101 209.007 236.024 217.313 244.236 217.69 243.936ZM227.381 231.535C228.477 232.573 229.367 233.213 230.049 233.455 230.737 233.701 231.4 233.487 232.038 232.812 232.682 232.133 232.86 231.464 232.573 230.805 232.295 230.146 231.6 229.291 230.489 228.238 229.373 227.181 228.486 226.529 227.827 226.282 227.163 226.04 226.51 226.259 225.866 226.938 225.218 227.622 225.036 228.301 225.319 228.974 225.597 229.643 226.284 230.496 227.381 231.535ZM234.777 223.726C237.135 225.959 238.381 228.069 238.516 230.056 238.65 232.042 237.701 234.108 235.67 236.252 233.643 238.392 231.625 239.449 229.615 239.423 227.615 239.397 225.441 238.272 223.092 236.047 220.739 233.818 219.496 231.711 219.361 229.724 219.227 227.738 220.178 225.67 222.214 223.52 224.25 221.371 226.263 220.309 228.254 220.336 230.245 220.362 232.419 221.492 234.777 223.726ZM247.265 222.011L243.554 226.934 229.322 216.205 233.033 211.282ZM251.862 204.967L255.913 207.314C255.345 209.164 254.552 210.933 253.534 212.622 252.521 214.305 251.499 215.457 250.47 216.077 249.437 216.703 248.239 216.879 246.876 216.604 245.513 216.328 243.775 215.555 241.662 214.282V214.282C238.634 212.458 236.843 210.743 236.289 209.137 235.735 207.532 236.249 205.415 237.832 202.788V202.788C238.491 201.695 239.422 200.492 240.625 199.181V199.181L241.264 198.489 245.26 201.084C244.363 202.236 243.595 203.342 242.957 204.401 242.323 205.454 242.115 206.253 242.333 206.798 242.55 207.343 243.289 207.995 244.548 208.753 245.814 209.515 246.732 209.972 247.305 210.122 247.878 210.272 248.338 210.233 248.686 210.005 249.039 209.781 249.43 209.315 249.857 208.605V208.605ZM263.276 191.895L257.881 204.109 241.578 196.907 246.973 184.693 251.475 186.682 248.571 193.257 249.955 193.868 252.215 188.752 256.672 190.72 254.412 195.837 255.87 196.481 258.774 189.906ZM266.354 182.618L264.483 188.387 259.477 186.763 261.348 180.994ZM260.12 180.785L258.363 186.201 247.474 183.058 249.459 176.937Z" fill="#ffffff" data-fill-palette-color="primary"></path><path d="M26.494 92.063L33.484 94.397C33.177 97.428 32.508 100.403 31.477 103.32 30.443 106.243 29.235 108.347 27.853 109.63 26.462 110.917 24.67 111.563 22.478 111.568 20.284 111.579 17.36 110.938 13.706 109.646V109.646C8.47 107.795 5.171 105.718 3.81 103.414 2.454 101.113 2.581 97.689 4.189 93.14V93.14C4.86 91.243 5.912 89.099 7.346 86.707V86.707L8.108 85.424 15.094 88.16C14.065 90.227 13.228 92.175 12.582 94.002 11.936 95.829 11.867 97.127 12.375 97.895 12.887 98.671 14.236 99.446 16.423 100.219 18.603 100.99 20.159 101.398 21.093 101.445 22.017 101.496 22.717 101.293 23.19 100.836 23.663 100.38 24.118 99.534 24.555 98.299V98.299ZM28.879 76.182C30.874 77.466 32.438 78.198 33.57 78.378 34.696 78.555 35.655 78.027 36.447 76.797 37.239 75.566 37.323 74.484 36.7 73.551 36.068 72.619 34.738 71.501 32.709 70.195 30.68 68.889 29.123 68.141 28.038 67.951 26.943 67.763 25.996 68.29 25.196 69.532 24.397 70.774 24.314 71.873 24.946 72.828 25.579 73.784 26.89 74.902 28.879 76.182ZM38.026 61.97C42.32 64.733 44.862 67.63 45.655 70.659 46.441 73.684 45.578 77.15 43.064 81.056 40.55 84.961 37.743 87.187 34.641 87.734 31.537 88.272 27.844 87.163 23.562 84.407 19.28 81.651 16.746 78.76 15.959 75.734 15.173 72.709 16.041 69.235 18.566 65.312 21.087 61.396 23.887 59.169 26.967 58.631 30.046 58.094 33.733 59.207 38.026 61.97ZM59.524 60.768L52.188 67.135 33.809 45.961 44.718 36.493 53.385 43.159 47.716 33.891 58.935 24.153 77.314 45.327 69.986 51.687 60.524 40.786 60.176 41.088 67.615 53.36 61.483 58.683 50.41 49.565 50.062 49.867ZM89.523 40.056L80.56 43.8 69.751 17.93 83.08 12.361 89.218 21.41 86.742 10.831 100.45 5.104 111.259 30.974 102.305 34.715 96.741 21.396 96.315 21.574 99.53 35.56 92.037 38.69 84.383 26.559 83.958 26.736ZM136.169 27.82L115.321 30.435 111.831 2.615 132.679 0 133.642 7.679 122.432 9.085 122.729 11.452 131.452 10.358 132.405 17.957 123.683 19.051 123.996 21.547 135.205 20.141ZM149.752 29.133L140.101 28.031 143.281 0.174 152.762 1.256 157.961 12.545 158.549 12.612 159.754 2.055 169.395 3.155 166.215 31.012 156.694 29.925 151.665 17.849 151.048 17.779ZM182.03 15.259L176.619 13.244 179.379 5.832 198.984 13.133 196.224 20.545 191.123 18.646 184.098 37.509 175.005 34.122ZM202.747 47.982V47.982L192.497 41.237 207.911 17.816 217.808 24.33C221.839 26.982 224.142 29.798 224.718 32.777 225.295 35.765 224.269 39.258 221.638 43.255 219.008 47.252 216.186 49.686 213.171 50.559 210.157 51.431 206.682 50.572 202.747 47.982ZM213.193 38.273C214.574 36.174 215.277 34.632 215.3 33.648 215.33 32.667 214.599 31.686 213.109 30.705V30.705L211.677 29.763 204.959 39.97 206.391 40.913C207.603 41.71 208.699 41.995 209.68 41.769V41.769C210.64 41.537 211.811 40.372 213.193 38.273ZM223.84 65.092L216.884 58.313 236.452 38.232 243.408 45.012ZM261.995 70.826L255.678 74.947C253.763 71.491 252.292 69.032 251.266 67.572 250.236 66.107 249.598 65.286 249.35 65.108 249.105 64.922 248.856 64.917 248.605 65.093 248.353 65.27 248.255 65.543 248.311 65.913 248.366 66.282 248.742 67.305 249.438 68.98 250.139 70.652 250.661 72.058 251.004 73.197 251.342 74.34 251.494 75.479 251.459 76.615 251.424 77.75 251.083 78.724 250.438 79.538 249.794 80.341 248.789 81.224 247.422 82.185V82.185C244.59 84.175 242.041 84.843 239.776 84.189 237.507 83.53 235.306 81.683 233.173 78.648V78.648C232.147 77.188 231.168 75.581 230.237 73.826 229.315 72.072 228.65 70.69 228.241 69.679V69.679L227.619 68.131 233.915 64.207C235.868 68.054 237.63 71.096 239.202 73.332V73.332C240.036 74.519 240.716 74.927 241.24 74.558V74.558C241.47 74.397 241.541 74.143 241.452 73.797 241.359 73.454 240.98 72.613 240.317 71.275V71.275C238.572 67.723 237.826 65 238.079 63.106 238.329 61.207 239.662 59.408 242.079 57.709V57.709C245.162 55.542 247.796 54.798 249.98 55.476 252.163 56.164 254.336 58.047 256.5 61.125V61.125C258.025 63.295 259.598 65.992 261.218 69.215V69.215ZM250.785 113.854L247.201 104.837 256.302 101.219 254.277 96.124 245.176 99.741 241.588 90.715 267.643 80.358 271.231 89.385 261.626 93.202 263.652 98.298 273.256 94.48 276.84 103.498Z" fill="#ffffff" data-fill-palette-color="primary"></path><path d="M9.387 144.345C9.387 142.536 10.853 141.069 12.662 141.069 14.471 141.069 15.937 142.536 15.937 144.345 15.937 146.153 14.471 147.62 12.662 147.62 10.853 147.62 9.387 146.153 9.387 144.345ZM261.75 144.345C261.75 142.536 263.216 141.069 265.025 141.069 266.834 141.069 268.3 142.536 268.3 144.345 268.3 146.153 266.834 147.62 265.025 147.62 263.216 147.62 261.75 146.153 261.75 144.345Z" fill="#ffffff" data-fill-palette-color="primary"></path></g></svg></g></svg></g></svg></g></svg></g><defs></defs></svg><rect width="279.72" height="279.72" fill="none" stroke="none" visibility="hidden"></rect></g></svg></g></svg>